<svg width="26" height="25" viewBox="0 0 26 25" fill="none" xmlns="http://www.w3.org/2000/svg">
<path d="M7.90661 24.4871C8.8618 24.4871 9.63613 23.7058 9.63613 22.742C9.63613 21.7782 8.8618 20.9969 7.90661 20.9969C6.95143 20.9969 6.17709 21.7782 6.17709 22.742C6.17709 23.7058 6.95143 24.4871 7.90661 24.4871Z" fill="#301F4A"/>
<path d="M16.9002 24.4871C17.8554 24.4871 18.6297 23.7058 18.6297 22.742C18.6297 21.7782 17.8554 20.9969 16.9002 20.9969C15.9451 20.9969 15.1708 21.7782 15.1708 22.742C15.1708 23.7058 15.9451 24.4871 16.9002 24.4871Z" fill="#301F4A"/>
<path d="M19.3212 11.5736C17.9452 11.5736 16.6255 11.0221 15.6525 10.0403C14.6794 9.05849 14.1328 7.72689 14.1328 6.33842H4.93896L4.62766 5.34024C4.59346 5.23306 4.53408 5.13582 4.45458 5.05682C4.37507 4.97781 4.27781 4.91938 4.17108 4.88652L1.33475 4.007C1.24754 3.97996 1.1559 3.97051 1.06507 3.97921C0.974244 3.9879 0.886001 4.01456 0.805382 4.05766C0.642564 4.14472 0.520687 4.29347 0.466562 4.47119C0.412438 4.64891 0.430499 4.84105 0.516773 5.00534C0.603047 5.16963 0.750466 5.2926 0.926601 5.34722L3.41011 6.11505L6.5785 16.2156L5.45088 17.1509L5.36095 17.2417C5.08209 17.5675 4.9241 17.9809 4.914 18.4113C4.90391 18.8417 5.04234 19.2622 5.30561 19.601C5.49416 19.8324 5.73376 20.016 6.00524 20.1372C6.27672 20.2584 6.57254 20.3138 6.86905 20.299H18.415C18.5984 20.299 18.7744 20.2255 18.9041 20.0946C19.0339 19.9637 19.1067 19.7861 19.1067 19.601C19.1067 19.4159 19.0339 19.2383 18.9041 19.1074C18.7744 18.9765 18.5984 18.903 18.415 18.903H6.75836C6.6787 18.9002 6.60109 18.8768 6.53302 18.8349C6.46495 18.7931 6.40873 18.7342 6.36978 18.6641C6.33083 18.5939 6.31048 18.5148 6.31069 18.4344C6.3109 18.3539 6.33165 18.2749 6.37096 18.2049L8.03817 16.8089H18.7124C18.8705 16.8135 19.0253 16.7634 19.1512 16.6669C19.277 16.5704 19.3663 16.4333 19.4042 16.2784L20.5872 11.3922C20.1742 11.5052 19.749 11.5661 19.3212 11.5736Z" fill="#301F4A"/>
<path d="M20.705 9.82846C23.3795 9.82846 25.5475 7.64082 25.5475 4.94224C25.5475 2.24366 23.3795 0.0560303 20.705 0.0560303C18.0306 0.0560303 15.8625 2.24366 15.8625 4.94224C15.8625 7.64082 18.0306 9.82846 20.705 9.82846Z" fill="#FA5C98"/>
</svg>
