<svg width="32" height="32" viewBox="0 0 32 32" fill="none" xmlns="http://www.w3.org/2000/svg">
<circle cx="16.3812" cy="15.7589" r="15.5941" fill="#FA5C98"/>
<path d="M21.7978 19.5803C21.5272 18.9017 21.1347 18.2852 20.642 17.7653C20.1507 17.2439 19.5688 16.8282 18.9283 16.5411C18.9226 16.5381 18.9169 16.5365 18.9111 16.5335C19.8045 15.85 20.3853 14.7367 20.3853 13.4806C20.3853 11.3998 18.7936 9.71387 16.829 9.71387C14.8644 9.71387 13.2727 11.3998 13.2727 13.4806C13.2727 14.7367 13.8535 15.85 14.7468 16.535C14.7411 16.5381 14.7354 16.5396 14.7296 16.5426C14.0872 16.8297 13.5107 17.2413 13.016 17.7668C12.5237 18.2871 12.1313 18.9035 11.8602 19.5818C11.594 20.246 11.4504 20.958 11.4372 21.6794C11.4368 21.6956 11.4395 21.7117 11.4451 21.7268C11.4507 21.7419 11.4591 21.7557 11.4698 21.7673C11.4805 21.7789 11.4932 21.7881 11.5073 21.7944C11.5215 21.8007 11.5366 21.8039 11.5519 21.8039H12.4123C12.4754 21.8039 12.5256 21.7508 12.527 21.6855C12.5557 20.5129 13.0002 19.4148 13.7861 18.5824C14.5991 17.7213 15.6789 17.2474 16.829 17.2474C17.979 17.2474 19.0588 17.7213 19.8719 18.5824C20.6577 19.4148 21.1023 20.5129 21.1309 21.6855C21.1324 21.7523 21.1826 21.8039 21.2457 21.8039H22.1061C22.1214 21.8039 22.1365 21.8007 22.1506 21.7944C22.1647 21.7881 22.1775 21.7789 22.1882 21.7673C22.1989 21.7557 22.2073 21.7419 22.2129 21.7268C22.2185 21.7117 22.2212 21.6956 22.2208 21.6794C22.2064 20.9534 22.0645 20.2471 21.7978 19.5803ZM16.829 16.093C16.1708 16.093 15.5513 15.8212 15.0853 15.3275C14.6192 14.8339 14.3625 14.1778 14.3625 13.4806C14.3625 12.7835 14.6192 12.1273 15.0853 11.6337C15.5513 11.1401 16.1708 10.8682 16.829 10.8682C17.4872 10.8682 18.1067 11.1401 18.5727 11.6337C19.0388 12.1273 19.2954 12.7835 19.2954 13.4806C19.2954 14.1778 19.0388 14.8339 18.5727 15.3275C18.1067 15.8212 17.4872 16.093 16.829 16.093Z" fill="white"/>
</svg>
